<?xml version="1.0" encoding="utf-8"?>
<!-- Generator: Adobe Illustrator 15.1.0, SVG Export Plug-In  -->
<!DOCTYPE svg PUBLIC "-//W3C//DTD SVG 1.1//EN" "http://www.w3.org/Graphics/SVG/1.1/DTD/svg11.dtd" [
	<!ENTITY ns_flows "http://ns.adobe.com/Flows/1.0/">
]>
<svg version="1.1"
	 xmlns="http://www.w3.org/2000/svg" xmlns:xlink="http://www.w3.org/1999/xlink" xmlns:a="http://ns.adobe.com/AdobeSVGViewerExtensions/3.0/"
	 x="0px" y="0px" width="12px" height="12px" viewBox="-0.005 0 12 12" overflow="visible" enable-background="new -0.005 0 12 12"
	 xml:space="preserve">
<defs>
</defs>
<path d="M2.997,0h5.996c1.647,0,2.997,1.35,2.997,2.997v1.995c0,1.649-1.35,2.998-2.997,2.998H7.99V12L3.98,7.99H2.997
	C1.348,7.99,0,6.642,0,4.992V2.997C0,1.35,1.348,0,2.997,0 M7.99,7h1.003C10.1,7,11,6.101,11,4.992V2.997
	c0-1.105-0.9-2.007-2.007-2.007H2.997c-1.106,0-2.007,0.9-2.007,2.007v1.995C0.99,6.1,1.891,7,2.997,7H3.98h0.41L4.68,7.291
	l2.319,2.318V7.99"/>
</svg>
