<svg xmlns="http://www.w3.org/2000/svg" xmlns:xlink="http://www.w3.org/1999/xlink" xmlns:a="http://ns.adobe.com/AdobeSVGViewerExtensions/3.0/" version="1.1" x="0px" y="0px" width="29px" height="29px" viewBox="-0.25 -0.231 29 29" overflow="visible" enable-background="new -0.25 -0.231 29 29" xml:space="preserve"><style>.searchicon{fill:	#bfbfbf;}</style><defs></defs><path d="M21.606 17.929L21.606 17.929c1.137-1.805 1.794-3.94 1.794-6.229C23.4 5.2 18.2 0 11.7 0 S0 5.2 0 11.7c0 6.5 5.2 11.7 11.7 11.7c2.29 0 4.425-0.656 6.229-1.793l6.932 6.932l3.678-3.678L21.606 17.929z M3.044 11.7 c0-4.773 3.883-8.657 8.656-8.657c4.772 0 8.7 3.9 8.7 8.657c0 4.774-3.883 8.657-8.655 8.7 C6.927 20.4 3 16.5 3 11.7z" class="searchicon"/></svg>