<svg xmlns="http://www.w3.org/2000/svg" xmlns:xlink="http://www.w3.org/1999/xlink" xmlns:a="http://ns.adobe.com/AdobeSVGViewerExtensions/3.0/" version="1.1" x="0px" y="0px" width="24px" height="24px" viewBox="-3.883 -5.045 24 24" overflow="visible" enable-background="new -3.883 -5.045 24 24" xml:space="preserve"><defs></defs><path d="M16.233 1.641c-0.599 0.28-1.238 0.469-1.916 0.554c0.688-0.435 1.215-1.119 1.467-1.941 c-0.644 0.403-1.354 0.694-2.117 0.854C13.062 0.4 12.2 0 11.2 0C9.401 0 7.9 1.6 7.9 3.5 c0 0.3 0 0.5 0.1 0.801c-2.765-0.15-5.221-1.546-6.859-3.671C0.846 1.2 0.7 1.8 0.7 2.4 c0 1.2 0.5 2.3 1.3 2.925C1.482 5.3 0.4 5.2 0.4 4.896v0.039c0 1.7 1.3 3.1 2.8 3.4 C2.907 8.5 2.7 8.5 2.4 8.5c-0.214 0-0.391-0.021-0.592-0.06c0.423 1.4 1.7 2.4 3.1 2.4 c-1.138 0.946-2.569 1.51-4.127 1.51c-0.271 0-0.53-0.02-0.79-0.053c1.473 1 3.2 1.6 5.1 1.6 c6.121 0 9.473-5.35 9.473-9.996c0-0.147-0.002-0.303-0.006-0.45C15.223 3 15.8 2.3 16.2 1.6" class="socialicon"/></svg>