<?xml version="1.0" encoding="utf-8"?>
<!-- Generator: Adobe Illustrator 15.1.0, SVG Export Plug-In  -->
<!DOCTYPE svg PUBLIC "-//W3C//DTD SVG 1.1//EN" "http://www.w3.org/Graphics/SVG/1.1/DTD/svg11.dtd" [
	<!ENTITY ns_flows "http://ns.adobe.com/Flows/1.0/">
]>
<svg version="1.1"
	 xmlns="http://www.w3.org/2000/svg" xmlns:xlink="http://www.w3.org/1999/xlink" xmlns:a="http://ns.adobe.com/AdobeSVGViewerExtensions/3.0/"
	 x="0px" y="0px" width="799px" height="145px" viewBox="-1.108 -1.161 799 145"
	 overflow="visible" enable-background="new -1.108 -1.161 799 145" xml:space="preserve">
<defs>
</defs>
<path fill="#FFFFFF" d="M60.901,118.41c-9.212,0-17.46-3.597-24.304-11.757l9.3-7.545c5.089,5.352,9.915,7.282,16.144,7.282
	c8.072,0,11.845-2.896,11.845-7.809c0-4.738-3.247-7.02-9.037-7.02h-7.282v-12.02h6.58c5.089,0,7.195-2.194,7.195-6.229
	c0-3.159-2.544-6.229-10.266-6.229c-4.738,0-8.598,1.667-12.02,5.176l-8.949-8.159c5.878-6.142,12.02-9.037,21.145-9.037
	c12.546,0,22.548,5.791,22.548,17.372c0,6.668-3.509,10.704-7.106,12.547c3.948,1.491,9.651,5.352,9.651,13.424
	C86.345,111.654,76.167,118.41,60.901,118.41z"/>
<path fill="#FFFFFF" d="M134.869,117.445l-10.967-22.11h-12.371v22.11H99.248V56.029h28.603c11.582,0,21.145,6.404,21.145,19.478
	c0,9.212-3.948,15.003-11.757,18.073l11.757,23.865H134.869z M127.587,67.961h-16.056v15.793h16.056
	c5.703,0,8.774-2.632,8.774-7.984C136.361,70.242,133.027,67.961,127.587,67.961z"/>
<path fill="#FFFFFF" d="M180.235,117.445h-18.337V56.029h19.214c17.548,0,30.533,8.247,30.533,30.708
	C211.646,108.32,196.028,117.445,180.235,117.445z M180.674,67.961h-6.493v37.552h6.054c12.897,0,18.776-7.545,18.776-18.775
	C199.011,74.19,193.659,67.961,180.674,67.961z"/>
<path fill="#FFFFFF" d="M240.775,142.678H10.968C2.921,142.678,0,136.117,0,131.708V41.76c0-8.047,6.56-10.968,10.968-10.968
	h229.807c8.047,0,10.968,6.559,10.968,10.968v89.948C251.743,139.757,245.184,142.678,240.775,142.678z M10.968,38.104
	c-1.645,0.042-3.656,0.712-3.656,3.656v89.948c0.042,1.646,0.712,3.657,3.656,3.657h229.778c1.685-0.046,3.686-0.72,3.686-3.657
	V41.76c-0.042-1.645-0.712-3.656-3.656-3.656H10.968z"/>
<path fill="#FFFFFF" d="M305.461,104.741c-2.545,1.843-5.704,2.721-9.477,2.721c-6.142,0-9.301-2.545-9.301-6.493
	c0-3.687,1.93-6.845,6.757-9.389L305.461,104.741z M331.17,117.377l-11.582-13.162c2.72-4.212,5.001-9.39,6.932-15.355l-9.916-3.159
	c-1.491,4.036-2.896,7.37-4.299,10.179L295.37,76.574c-1.93-2.28-3.247-4.035-3.247-6.668c0-2.545,2.194-4.037,5.792-4.037
	c4.387,0,8.774,1.317,12.81,4.389l5.879-8.863c-5.879-4.124-10.793-6.404-18.339-6.404c-10.354,0-18.251,5.177-18.251,15.18
	c0,4.914,2.106,8.861,5.353,12.46l1.579,1.755c-7.809,3.859-12.547,9.037-12.547,17.637c0,11.055,7.634,16.32,20.181,16.32
	c7.195,0,13.074-2.019,17.9-5.967l4.651,5.002H331.17z"/>
<path fill="#FFFFFF" d="M436.705,117.445V94.896c0-3.334,0.176-11.143,0.176-13.512c-0.877,2.281-2.719,6.668-4.299,10.178
	l-12.459,27.287l-12.459-27.287c-1.578-3.51-3.422-7.896-4.299-10.178c0,2.369,0.176,10.178,0.176,13.512v22.549h-12.02V56.029
	h11.844l12.811,27.812c1.578,3.422,3.422,8.071,4.211,10.266c0.789-2.281,2.545-6.756,4.123-10.266l12.371-27.812h12.109v61.416
	H436.705z"/>
<path fill="#FFFFFF" d="M465.664,117.445V56.029h12.283v61.416H465.664z"/>
<path fill="#FFFFFF" d="M515.501,118.41c-10.266,0-19.215-4.299-23.865-11.143l8.861-7.896c4.301,5.001,9.828,7.02,15.705,7.02
	c7.283,0,10.705-2.019,10.705-6.668c0-3.948-2.105-5.703-13.688-8.336c-11.318-2.632-19.215-6.229-19.215-18.337
	c0-11.143,9.828-17.986,21.936-17.986c9.562,0,16.582,3.598,22.373,9.651l-8.861,8.599c-3.949-4.036-8.336-6.317-13.951-6.317
	c-6.58,0-8.773,2.808-8.773,5.527c0,3.86,2.633,5.089,12.371,7.37s20.531,5.615,20.531,18.951
	C539.63,110.514,532.259,118.41,515.501,118.41z"/>
<path fill="#FFFFFF" d="M572.185,118.41c-10.266,0-19.215-4.299-23.865-11.143l8.861-7.896c4.301,5.001,9.828,7.02,15.705,7.02
	c7.283,0,10.705-2.019,10.705-6.668c0-3.948-2.105-5.703-13.688-8.336c-11.318-2.632-19.215-6.229-19.215-18.337
	c0-11.143,9.828-17.986,21.936-17.986c9.562,0,16.582,3.598,22.373,9.651l-8.861,8.599c-3.949-4.036-8.336-6.317-13.951-6.317
	c-6.58,0-8.773,2.808-8.773,5.527c0,3.86,2.633,5.089,12.371,7.37s20.531,5.615,20.531,18.951
	C596.314,110.514,588.943,118.41,572.185,118.41z"/>
<path fill="#FFFFFF" d="M610.179,117.445V56.029h12.283v61.416H610.179z"/>
<path fill="#FFFFFF" d="M662.564,118.41c-16.758,0-26.672-12.985-26.672-31.673c0-18.688,9.914-31.674,26.672-31.674
	s26.672,12.985,26.672,31.674C689.236,105.425,679.322,118.41,662.564,118.41z M662.564,67.259c-9.914,0-14.039,8.511-14.039,19.479
	c0,10.967,4.125,19.478,14.039,19.478s14.037-8.511,14.037-19.478C676.601,75.77,672.478,67.259,662.564,67.259z"/>
<path fill="#FFFFFF" d="M740.568,117.445L718.019,83.93c-1.49-2.281-3.51-5.353-4.299-6.932c0,2.281,0.176,10.002,0.176,13.424
	v27.023h-12.107V56.029h11.756l21.76,32.463c1.492,2.281,3.51,5.352,4.299,6.931c0-2.281-0.176-10.002-0.176-13.424v-25.97h12.107
	v61.416H740.568z"/>
<path fill="#FFFFFF" d="M785.816,142.678H357.41c-8.047,0-10.969-6.56-10.969-10.97V41.76c0-8.047,6.56-10.969,10.969-10.969
	h428.406c8.047,0,10.969,6.56,10.969,10.969v89.948C796.785,139.757,790.224,142.678,785.816,142.678z M357.41,38.104
	c-1.645,0.042-3.657,0.712-3.657,3.656v89.948c0.042,1.646,0.712,3.658,3.657,3.658h428.376c1.684-0.047,3.686-0.72,3.686-3.658
	V41.76c-0.043-1.645-0.711-3.656-3.656-3.656H357.41z"/>
<path fill="#FFFFFF" d="M8.852,11.38L7.907,8.723H3.425L2.497,11.38H0.752L4.786,0.176h1.776l4.082,11.204H8.852z M6.499,4.642
	C6.227,3.841,5.778,2.545,5.65,2.064c-0.128,0.48-0.528,1.761-0.816,2.593L3.938,7.219h3.458L6.499,4.642z"/>
<path fill="#FFFFFF" d="M20.563,11.38l-4.466-7.026c-0.272-0.416-0.656-1.089-0.833-1.377c0,0.416,0.016,1.969,0.016,2.593v5.811
	h-1.633V0.176h1.713l4.258,6.835c0.288,0.464,0.768,1.296,0.928,1.584c0-0.416-0.016-2.017-0.016-2.641V0.176h1.633V11.38H20.563z"
	/>
<path fill="#FFFFFF" d="M38.388,11.38l-0.944-2.657h-4.482l-0.928,2.657h-1.745l4.034-11.204h1.776l4.082,11.204H38.388z
	 M36.035,4.642c-0.272-0.801-0.72-2.097-0.848-2.577c-0.128,0.48-0.528,1.761-0.816,2.593l-0.896,2.562h3.458L36.035,4.642z"/>
<path fill="#FFFFFF" d="M49.235,6.803l2.289,4.577h-1.937l-2.225-4.434h-2.529v4.434h-1.649V0.176h4.914
	c1.953,0,3.602,1.04,3.602,3.345C51.701,5.313,50.756,6.418,49.235,6.803z M48.099,1.76h-3.265v3.602h3.265
	c1.121,0,1.905-0.576,1.905-1.792C50.004,2.4,49.235,1.76,48.099,1.76z"/>
<path fill="#FFFFFF" d="M58.962,1.824v9.556h-1.681V1.824h-3.265V0.176h8.211v1.648H58.962z"/>
<path fill="#FFFFFF" d="M68.178,11.557c-1.633,0-3.041-0.705-3.985-1.81l1.2-1.168c0.752,0.816,1.857,1.328,2.913,1.328
	c1.569,0,2.321-0.544,2.321-1.633c0-0.864-0.656-1.296-2.529-1.856c-2.369-0.704-3.505-1.296-3.505-3.297
	C64.593,1.184,66.226,0,68.291,0c1.521,0,2.673,0.56,3.666,1.521l-1.185,1.2C70.067,2,69.267,1.648,68.162,1.648
	c-1.312,0-1.873,0.64-1.873,1.393c0,0.784,0.512,1.168,2.449,1.744c2.209,0.673,3.586,1.377,3.586,3.378
	C72.324,10.18,71.043,11.557,68.178,11.557z"/>
<path fill="#FFFFFF" d="M88.164,11.38L87.22,8.723h-4.482L81.81,11.38h-1.745l4.034-11.204h1.776l4.082,11.204H88.164z
	 M85.811,4.642c-0.272-0.801-0.72-2.097-0.848-2.577c-0.128,0.48-0.528,1.761-0.816,2.593L83.25,7.219h3.458L85.811,4.642z"/>
<path fill="#FFFFFF" d="M99.876,11.38L95.41,4.354c-0.272-0.416-0.656-1.089-0.833-1.377c0,0.416,0.016,1.969,0.016,2.593v5.811
	h-1.633V0.176h1.713l4.258,6.835C99.22,7.475,99.7,8.307,99.86,8.595c0-0.416-0.016-2.017-0.016-2.641V0.176h1.633V11.38H99.876z"/>
<path fill="#FFFFFF" d="M108.242,11.38h-3.057V0.176h3.057c3.009,0,5.458,1.648,5.458,5.603
	C113.7,9.731,111.171,11.38,108.242,11.38z M108.242,1.809h-1.376v7.938h1.376c2.657,0,3.746-1.616,3.746-3.969
	C111.987,3.425,110.899,1.809,108.242,1.809z"/>
<path fill="#FFFFFF" d="M126.178,11.557c-2.897,0-4.738-2.386-4.738-5.778c0-3.394,1.841-5.778,4.738-5.778
	c1.825,0,3.041,0.735,3.809,2.097l-1.488,0.928c-0.576-0.912-1.168-1.344-2.321-1.344c-1.953,0-3.009,1.584-3.009,4.098
	c0,2.513,1.056,4.098,3.009,4.098c1.168,0,1.889-0.48,2.465-1.393l1.393,0.928C129.235,10.788,127.875,11.557,126.178,11.557z"/>
<path fill="#FFFFFF" d="M137.218,11.557c-2.769,0-4.21-1.793-4.21-4.883V0.176h1.681v6.45c0,2.113,0.88,3.25,2.561,3.25
	c1.761,0,2.593-1.089,2.593-3.138V0.176h1.681v6.53C141.524,9.844,140.003,11.557,137.218,11.557z"/>
<path fill="#FFFFFF" d="M145.136,11.38V0.176h1.681v9.556h5.586v1.648H145.136z"/>
<path fill="#FFFFFF" d="M157.714,1.824v9.556h-1.681V1.824h-3.265V0.176h8.211v1.648H157.714z"/>
<path fill="#FFFFFF" d="M168.114,11.557c-2.769,0-4.21-1.793-4.21-4.883V0.176h1.681v6.45c0,2.113,0.88,3.25,2.561,3.25
	c1.761,0,2.593-1.089,2.593-3.138V0.176h1.681v6.53C172.419,9.844,170.899,11.557,168.114,11.557z"/>
<path fill="#FFFFFF" d="M182.098,6.803l2.289,4.577h-1.937l-2.225-4.434h-2.529v4.434h-1.649V0.176h4.914
	c1.953,0,3.602,1.04,3.602,3.345C184.563,5.313,183.619,6.418,182.098,6.803z M180.962,1.76h-3.265v3.602h3.265
	c1.121,0,1.905-0.576,1.905-1.792C182.867,2.4,182.098,1.76,180.962,1.76z"/>
<path fill="#FFFFFF" d="M187.952,11.38V0.176h7.219v1.633h-5.538v2.769h3.217V6.21h-3.217v3.537h5.778v1.633H187.952z"/>
<path fill="#FFFFFF" d="M206.544,11.557c-2.097,0-3.345-1.104-3.905-2.978l1.632-0.48c0.433,1.152,1.104,1.777,2.321,1.777
	c1.617,0,2.257-0.913,2.257-3.042V0.176h1.681v6.786C210.53,9.972,209.25,11.557,206.544,11.557z"/>
<path fill="#FFFFFF" d="M218.369,11.557c-2.897,0-4.738-2.386-4.738-5.778c0-3.394,1.841-5.778,4.738-5.778
	c2.913,0,4.754,2.385,4.754,5.778C223.123,9.171,221.282,11.557,218.369,11.557z M218.369,1.681c-1.953,0-3.025,1.584-3.025,4.098
	c0,2.513,1.072,4.098,3.025,4.098c1.969,0,3.041-1.585,3.041-4.098C221.41,3.265,220.338,1.681,218.369,1.681z"/>
<path fill="#FFFFFF" d="M230.417,11.557c-2.77,0-4.21-1.793-4.21-4.883V0.176h1.681v6.45c0,2.113,0.88,3.25,2.561,3.25
	c1.761,0,2.593-1.089,2.593-3.138V0.176h1.681v6.53C234.723,9.844,233.202,11.557,230.417,11.557z"/>
<path fill="#FFFFFF" d="M244.385,6.803l2.289,4.577h-1.937l-2.225-4.434h-2.529v4.434h-1.649V0.176h4.914
	c1.953,0,3.602,1.04,3.602,3.345C246.851,5.313,245.906,6.418,244.385,6.803z M243.249,1.76h-3.265v3.602h3.265
	c1.121,0,1.905-0.576,1.905-1.792C245.154,2.4,244.385,1.76,243.249,1.76z"/>
<path fill="#FFFFFF" d="M257.154,11.38l-4.466-7.026c-0.272-0.416-0.656-1.089-0.833-1.377c0,0.416,0.016,1.969,0.016,2.593v5.811
	h-1.633V0.176h1.713l4.257,6.835c0.289,0.464,0.769,1.296,0.929,1.584c0-0.416-0.016-2.017-0.016-2.641V0.176h1.633V11.38H257.154z"
	/>
<path fill="#FFFFFF" d="M269.892,11.38l-0.944-2.657h-4.482l-0.928,2.657h-1.745l4.034-11.204h1.776l4.082,11.204H269.892z
	 M267.539,4.642c-0.272-0.801-0.72-2.097-0.848-2.577c-0.128,0.48-0.528,1.761-0.816,2.593l-0.896,2.562h3.458L267.539,4.642z"/>
<path fill="#FFFFFF" d="M274.689,11.38V0.176h1.681v9.556h5.586v1.648H274.689z"/>
<path fill="#FFFFFF" d="M294.578,11.38h-4.45V0.176h4.61c1.953,0,3.217,1.024,3.217,2.913c0,1.137-0.608,1.841-1.424,2.241
	c0.88,0.239,1.889,1.056,1.889,2.608C298.42,10.212,297.027,11.38,294.578,11.38z M294.722,1.712h-3.009v2.897h3.009
	c1.104,0,1.553-0.688,1.553-1.425C296.275,2.353,295.843,1.712,294.722,1.712z M294.754,6.13h-3.042v3.714h2.994
	c1.488,0,2.033-0.753,2.033-1.857C296.739,6.834,296.019,6.13,294.754,6.13z"/>
<path fill="#FFFFFF" d="M305.682,6.946v4.434h-1.681V6.946l-4.018-6.771h1.969l1.745,3.089c0.384,0.688,0.96,1.809,1.153,2.225
	c0.192-0.416,0.752-1.488,1.152-2.208l1.761-3.105h1.937L305.682,6.946z"/>
<path fill="#FFFFFF" d="M322.611,6.946v4.434h-1.681V6.946l-4.018-6.771h1.969l1.745,3.089c0.384,0.688,0.96,1.809,1.153,2.225
	c0.192-0.416,0.752-1.488,1.152-2.208l1.761-3.105h1.937L322.611,6.946z"/>
<path fill="#FFFFFF" d="M329.537,11.38V0.176h7.219v1.633h-5.538v2.769h3.217V6.21h-3.217v3.537h5.778v1.633H329.537z"/>
<path fill="#FFFFFF" d="M346.227,6.803l2.289,4.577h-1.937l-2.225-4.434h-2.529v4.434h-1.649V0.176h4.914
	c1.953,0,3.602,1.04,3.602,3.345C348.692,5.313,347.748,6.418,346.227,6.803z M345.091,1.76h-3.265v3.602h3.265
	c1.121,0,1.905-0.576,1.905-1.792C346.996,2.4,346.227,1.76,345.091,1.76z"/>
<path fill="#FFFFFF" d="M356.53,11.38h-4.45V0.176h4.61c1.953,0,3.217,1.024,3.217,2.913c0,1.137-0.608,1.841-1.424,2.241
	c0.88,0.239,1.889,1.056,1.889,2.608C360.372,10.212,358.979,11.38,356.53,11.38z M356.674,1.712h-3.009v2.897h3.009
	c1.104,0,1.553-0.688,1.553-1.425C358.227,2.353,357.795,1.712,356.674,1.712z M356.707,6.13h-3.042v3.714h2.994
	c1.488,0,2.033-0.753,2.033-1.857C358.691,6.834,357.971,6.13,356.707,6.13z"/>
<path fill="#FFFFFF" d="M370.708,11.38l-0.944-2.657h-4.482l-0.928,2.657h-1.745l4.034-11.204h1.776L372.5,11.38H370.708z
	 M368.354,4.642c-0.272-0.801-0.72-2.097-0.848-2.577c-0.128,0.48-0.528,1.761-0.816,2.593l-0.896,2.562h3.458L368.354,4.642z"/>
<path fill="#FFFFFF" d="M385.074,11.38h-4.45V0.176h4.61c1.953,0,3.217,1.024,3.217,2.913c0,1.137-0.608,1.841-1.424,2.241
	c0.88,0.239,1.889,1.056,1.889,2.608C388.916,10.212,387.523,11.38,385.074,11.38z M385.218,1.712h-3.009v2.897h3.009
	c1.104,0,1.553-0.688,1.553-1.425C386.771,2.353,386.338,1.712,385.218,1.712z M385.25,6.13h-3.042v3.714h2.994
	c1.488,0,2.033-0.753,2.033-1.857C387.235,6.834,386.515,6.13,385.25,6.13z"/>
<path fill="#FFFFFF" d="M396.354,11.557c-2.769,0-4.21-1.793-4.21-4.883V0.176h1.681v6.45c0,2.113,0.88,3.25,2.561,3.25
	c1.761,0,2.593-1.089,2.593-3.138V0.176h1.681v6.53C400.66,9.844,399.139,11.557,396.354,11.557z"/>
<path fill="#FFFFFF" d="M404.289,11.38V0.176h7.219v1.633h-5.539v2.769h3.217V6.21h-3.217v3.537h5.779v1.633H404.289z"/>
<path fill="#FFFFFF" d="M421.843,11.38l-4.467-7.026c-0.271-0.416-0.656-1.089-0.832-1.377c0,0.416,0.016,1.969,0.016,2.593v5.811
	h-1.631V0.176h1.711l4.258,6.835c0.289,0.464,0.77,1.296,0.93,1.584c0-0.416-0.016-2.017-0.016-2.641V0.176h1.631V11.38H421.843z"/>
<path fill="#FFFFFF" d="M434.548,11.38l-0.945-2.657h-4.48l-0.93,2.657h-1.744l4.033-11.204h1.777l4.082,11.204H434.548z
	 M432.195,4.642c-0.271-0.801-0.721-2.097-0.848-2.577c-0.129,0.48-0.529,1.761-0.816,2.593l-0.896,2.562h3.457L432.195,4.642z"/>
<path fill="#FFFFFF" d="M448.675,11.557c-2.896,0-4.738-2.386-4.738-5.778c0-3.394,1.842-5.778,4.738-5.778
	c1.824,0,3.041,0.735,3.809,2.097l-1.488,0.928c-0.576-0.912-1.168-1.344-2.32-1.344c-1.953,0-3.01,1.584-3.01,4.098
	c0,2.513,1.057,4.098,3.01,4.098c1.168,0,1.889-0.48,2.465-1.393l1.393,0.928C451.732,10.788,450.373,11.557,448.675,11.557z"/>
<path fill="#FFFFFF" d="M455.73,11.38V0.176h7.219v1.633h-5.539v2.769h3.217V6.21h-3.217v3.537h5.779v1.633H455.73z"/>
<path fill="#FFFFFF" d="M473.283,11.38l-4.465-7.026c-0.271-0.416-0.656-1.089-0.832-1.377c0,0.416,0.016,1.969,0.016,2.593v5.811
	h-1.633V0.176h1.713l4.258,6.835c0.287,0.464,0.768,1.296,0.928,1.584c0-0.416-0.016-2.017-0.016-2.641V0.176h1.633V11.38H473.283z"
	/>
<path fill="#FFFFFF" d="M482.833,1.824v9.556h-1.68V1.824h-3.266V0.176h8.211v1.648H482.833z"/>
<path fill="#FFFFFF" d="M489.089,11.38V0.176h7.219v1.633h-5.539v2.769h3.217V6.21h-3.217v3.537h5.779v1.633H489.089z"/>
<path fill="#FFFFFF" d="M505.779,6.803l2.289,4.577h-1.938l-2.225-4.434h-2.529v4.434h-1.648V0.176h4.914
	c1.953,0,3.602,1.04,3.602,3.345C508.244,5.313,507.298,6.418,505.779,6.803z M504.642,1.76h-3.266v3.602h3.266
	c1.121,0,1.904-0.576,1.904-1.792C506.546,2.4,505.779,1.76,504.642,1.76z"/>
<path fill="#FFFFFF" d="M518.433,1.824v2.93h3.217v1.648h-3.217v4.978h-1.68V0.176h7.219v1.648H518.433z"/>
<path fill="#FFFFFF" d="M530.544,11.557c-2.896,0-4.736-2.386-4.736-5.778c0-3.394,1.84-5.778,4.736-5.778
	c2.914,0,4.754,2.385,4.754,5.778C535.298,9.171,533.458,11.557,530.544,11.557z M530.544,1.681c-1.951,0-3.025,1.584-3.025,4.098
	c0,2.513,1.074,4.098,3.025,4.098c1.969,0,3.041-1.585,3.041-4.098C533.585,3.265,532.513,1.681,530.544,1.681z"/>
<path fill="#FFFFFF" d="M544.513,6.803l2.289,4.577h-1.936l-2.227-4.434h-2.527v4.434h-1.648V0.176h4.912
	c1.953,0,3.602,1.04,3.602,3.345C546.978,5.313,546.035,6.418,544.513,6.803z M543.376,1.76h-3.264v3.602h3.264
	c1.121,0,1.906-0.576,1.906-1.792C545.283,2.4,544.513,1.76,543.376,1.76z"/>
<path fill="#FFFFFF" d="M559.73,1.824v9.556h-1.682V1.824h-3.266V0.176h8.213v1.648H559.73z"/>
<path fill="#FFFFFF" d="M572.818,11.38V6.354h-5.154v5.025h-1.68V0.176h1.68v4.529h5.154V0.176h1.68V11.38H572.818z"/>
<path fill="#FFFFFF" d="M578.208,11.38V0.176h7.219v1.633h-5.539v2.769h3.217V6.21h-3.217v3.537h5.779v1.633H578.208z"/>
<path fill="#FFFFFF" d="M601.429,11.38l-0.945-2.657h-4.48l-0.93,2.657h-1.744l4.033-11.204h1.777l4.082,11.204H601.429z
	 M599.076,4.642c-0.271-0.801-0.721-2.097-0.848-2.577c-0.129,0.48-0.529,1.761-0.816,2.593l-0.896,2.562h3.457L599.076,4.642z"/>
<path fill="#FFFFFF" d="M612.275,6.803l2.289,4.577h-1.936l-2.227-4.434h-2.527v4.434h-1.648V0.176h4.912
	c1.953,0,3.602,1.04,3.602,3.345C614.74,5.313,613.796,6.418,612.275,6.803z M611.138,1.76h-3.264v3.602h3.264
	c1.121,0,1.906-0.576,1.906-1.792C613.044,2.4,612.275,1.76,611.138,1.76z"/>
<path fill="#FFFFFF" d="M622.003,1.824v9.556h-1.682V1.824h-3.266V0.176h8.213v1.648H622.003z"/>
<path fill="#FFFFFF" d="M631.218,11.557c-1.633,0-3.041-0.705-3.986-1.81l1.201-1.168c0.752,0.816,1.857,1.328,2.914,1.328
	c1.568,0,2.32-0.544,2.32-1.633c0-0.864-0.656-1.296-2.529-1.856c-2.369-0.704-3.506-1.296-3.506-3.297
	c0-1.938,1.633-3.121,3.697-3.121c1.521,0,2.674,0.56,3.666,1.521l-1.184,1.2c-0.705-0.721-1.506-1.072-2.609-1.072
	c-1.312,0-1.873,0.64-1.873,1.393c0,0.784,0.512,1.168,2.449,1.744c2.209,0.673,3.586,1.377,3.586,3.378
	C635.365,10.18,634.083,11.557,631.218,11.557z"/>
</svg>
