<svg xmlns="http://www.w3.org/2000/svg" xmlns:xlink="http://www.w3.org/1999/xlink" version="1.1" x="0px" y="0px" width="45px" height="28px" viewBox="8 5 45 28" enable-background="new 8 5 45 28" xml:space="preserve"><g><g><path d="M50.026 21.506c-1.207-1.27-0.507-4.593-1.403-5.54c-0.406-0.424-1.486-0.867-2.44-0.867 c-3.413 0-5.529 2.336-6.106 5.305c-0.594 0.631-2.433 1.804-4.106 1.804c-1.094 0-1.561-0.616-1.561-1.698 c0-1.283 0.768-2.305 1.787-2.305c0.413 0 0.7 0.2 0.7 0.157c-0.061 0.498-0.146 0.682-0.146 1.1 c0 0.4 0.2 0.6 0.7 0.552c1.269 0 2.666-0.534 2.666-2.726c0-1.104-1.331-2.118-3.843-2.118 c-2.186 0-4.059 1.418-4.876 3.409c-0.279-1.365-1.148-2.511-2.617-3.103c1.798-2.556 2.506-4.957 2.506-6.313 c0-1.984-1.125-3.854-3.097-3.854c-4.907 0-7.235 6.327-7.645 12.071c-0.46-0.693-1.197-1.32-1.972-1.32 c-0.618 0-0.945 0.229-1.025 0.923c-0.191 1.646-0.413 3.073-0.689 4.306c-0.227 0.08-0.902 0.3-1.556 0.3 c-0.972 0-1.278-0.239-1.278-1.107c0-1.715 1.326-3.165 1.337-3.404c-0.091-0.719-1.186-1.97-2.309-1.97 c-1.036 0-2.53 3.549-2.53 5.873c0 2.6 1 3.9 3.4 3.854c0.937 0 1.488-0.187 1.918-0.352 c-0.061 0.13-0.121 0.254-0.185 0.376c-1.408 2.755-2.906 3.632-5.615 3.632c-0.24 0-1.409 0.16-1.409 2.2 c0 1.4 0.8 2 2.1 2.034c5.452 0 8.615-6.146 9.902-11.732c0.476 3.2 2.3 4.6 4.8 4.6 c2.729 0 4.765-1.549 5.617-3.708c0.399 2.3 2.1 3.7 4.6 3.709c2.133 0 4.254-1.375 4.762-1.772 c0.517 1.1 1.5 1.8 3 1.766c1.777 0 3.143-0.979 3.627-1.382c0.725 1 1.8 1.8 3.4 1.8 c1.248 0 2.196-1.923 2.196-2.758C52.434 22.3 50.9 22.4 50 21.506z M27.189 8.999c0.451 0 0.2 3.242-3.208 7.7 C24.45 12.3 26.4 9 27.2 8.999z M25.69 22.199c-0.844 0-1.499-0.646-1.622-1.637c0.929-0.774 1.799-1.688 2.565-2.528 c0.899 0.3 1.3 0.9 1.3 1.891C27.926 21.2 27 22.2 25.7 22.199z M44.299 22.193c-0.658 0-0.98-0.463-0.98-1.274 c0-2.084 1.486-2.761 2.395-2.761c-0.029 0.199-0.046 1.117-0.046 1.539c0 0.6 0.1 1.3 0.2 1.9 C45.554 21.8 45 22.2 44.3 22.193z"/></g></g></svg>