<svg xmlns="http://www.w3.org/2000/svg" xmlns:xlink="http://www.w3.org/1999/xlink" version="1.1" x="0px" y="0px" width="61px" height="38px" viewBox="0 0 61 38" enable-background="new 0 0 61 38" xml:space="preserve"><g><g><path d="M57.114 22.414c-1.645-1.73-0.691-6.259-1.914-7.55c-0.553-0.578-2.025-1.182-3.324-1.182 c-4.654 0-7.537 3.183-8.324 7.229c-0.809 0.861-3.316 2.459-5.598 2.459c-1.49 0-2.127-0.84-2.127-2.316 c0-1.748 1.047-3.139 2.436-3.139c0.564 0 0.91 0.214 0.91 0.214c-0.082 0.679-0.199 0.928-0.199 1.467 c0 0.491 0.229 0.751 0.906 0.751c1.729 0 3.633-0.727 3.633-3.714c0-1.505-1.814-2.887-5.238-2.887 c-2.977 0-5.531 1.932-6.645 4.646c-0.381-1.861-1.565-3.422-3.567-4.229c2.451-3.482 3.415-6.756 3.415-8.604 c0-2.705-1.533-5.252-4.22-5.252c-6.689 0-9.862 8.623-10.419 16.453c-0.628-0.946-1.632-1.8-2.688-1.8 c-0.842 0-1.288 0.311-1.397 1.258c-0.261 2.244-0.564 4.188-0.94 5.868c-0.309 0.109-1.23 0.408-2.121 0.408 c-1.324 0-1.742-0.326-1.742-1.51c0-2.335 1.808-4.312 1.822-4.639c-0.123-0.98-1.616-2.684-3.146-2.684 c-1.412 0-3.449 4.836-3.449 8.004c0 3.535 1.397 5.252 4.639 5.252c1.277 0 2.028-0.254 2.613-0.48 c-0.082 0.178-0.164 0.348-0.251 0.514C8.26 30.705 6.218 31.9 2.526 31.9c-0.327 0-1.921 0.219-1.921 3.02 c0 1.961 1.104 2.771 2.811 2.771c7.431 0 11.743-8.375 13.496-15.99c0.649 4.43 3.173 6.311 6.601 6.311 c3.719 0 6.494-2.109 7.656-5.053c0.545 3.127 2.797 5.055 6.207 5.055c2.906 0 5.799-1.873 6.49-2.416 c0.705 1.439 2.096 2.406 4.027 2.406c2.422 0 4.283-1.334 4.943-1.883c0.986 1.426 2.463 2.396 4.564 2.396 c1.701 0 2.994-2.621 2.994-3.758C60.394 23.449 58.247 23.607 57.114 22.414z M25.988 5.369c0.614 0 0.226 4.419-4.372 10.438 C22.254 9.85 24.892 5.369 25.988 5.369z M23.944 23.359c-1.15 0-2.042-0.881-2.21-2.23c1.265-1.055 2.452-2.302 3.497-3.446 c1.225 0.373 1.76 1.28 1.76 2.577C26.991 22 25.752 23.359 23.944 23.359z M49.306 23.352c-0.896 0-1.336-0.631-1.336-1.738 c0-2.84 2.027-3.762 3.264-3.762c-0.039 0.272-0.062 1.523-0.062 2.097c0 0.854 0.08 1.753 0.254 2.634 C51.017 22.867 50.196 23.352 49.306 23.352z" class="ybcalogo"/></g></g></svg>